<svg version="1.1" id="Capa_1" x="0px" y="0px" viewBox="0 0 384.97 384.97" style="enable-background:new 0 0 384.97 384.97;" xmlns="http://www.w3.org/2000/svg">
  <path fill="#80543c" d="M 372.917 298.262 L 12.373 296.476 C 5.732 296.476 0 306.148 0 312.788 C 0 319.429 7.286 326.674 13.926 326.674 L 372.829 326.74 C 379.47 326.74 384.969 319.428 384.969 312.788 C 384.97 306.147 379.558 298.262 372.917 298.262 Z"></path>
  <path fill="#80543c" d="M 521.64 194.36 L 161.112 192.574 C 154.471 192.574 148.653 202.246 148.595 208.886 C 148.536 215.527 155.758 222.772 162.398 222.772 L 521.301 222.838 C 527.942 222.838 533.505 215.526 533.564 208.886 C 533.623 202.245 528.281 194.36 521.64 194.36 Z" transform="matrix(0.9999999999999999, 0, 0, 0.9999999999999999, -148.54638324162335, -13.29202855962777)"></path>
  <path fill="#80543c" d="M 373.162 64.904 L 12.634 63.118 C 5.993 63.118 0.175 72.79 0.117 79.43 C 0.058 86.071 7.28 93.316 13.92 93.316 L 372.823 93.382 C 379.464 93.382 385.027 86.07 385.086 79.43 C 385.145 72.789 379.803 64.904 373.162 64.904 Z"></path>
</svg>