<?xml version="1.0" encoding="UTF-8"?>
<svg width="11px" height="7px" viewBox="0 0 11 7" version="1.1" xmlns="http://www.w3.org/2000/svg" xmlns:xlink="http://www.w3.org/1999/xlink">
    <!-- Generator: Sketch 50.2 (55047) - http://www.bohemiancoding.com/sketch -->
    <title>angle-down - FontAwesome</title>
    <desc>Created with Sketch.</desc>
    <defs></defs>
    <g id="Page-1" stroke="none" stroke-width="1" fill="none" fill-rule="evenodd">
        <path d="M11,0.914829659 C11,1.00300601 10.9559118,1.10220441 10.8897796,1.16833667 L5.75350701,6.30460922 C5.68737475,6.37074148 5.58817635,6.41482966 5.5,6.41482966 C5.41182365,6.41482966 5.31262525,6.37074148 5.24649299,6.30460922 L0.110220441,1.16833667 C0.0440881764,1.10220441 0,1.00300601 0,0.914829659 C0,0.826653307 0.0440881764,0.72745491 0.110220441,0.661322645 L0.661322645,0.110220441 C0.72745491,0.0440881764 0.815631263,0 0.914829659,0 C1.00300601,0 1.10220441,0.0440881764 1.16833667,0.110220441 L5.5,4.44188377 L9.83166333,0.110220441 C9.89779559,0.0440881764 9.99699399,0 10.0851703,0 C10.1733467,0 10.2725451,0.0440881764 10.3386774,0.110220441 L10.8897796,0.661322645 C10.9559118,0.72745491 11,0.826653307 11,0.914829659 Z" id="angle-down---FontAwesome" fill="#848484"></path>
    </g>
</svg>